<svg width="58" height="58" viewBox="0 0 58 58" fill="none" xmlns="http://www.w3.org/2000/svg">
<path d="M26.6241 15C26.6241 13.9429 27.1241 13 28.6241 13C30.1241 13 30.6241 13.6124 30.6241 14.9999C30.6347 20.0905 30.6241 24.9094 30.6241 30C32.2677 28.578 33.6241 27 34.6241 26C35.6241 25 36.9009 24.7768 37.6241 25.5C38.3474 26.2232 38.3878 27.2827 37.6241 28C35.2067 30.2792 32.475 33.1528 30.1241 35.5C29.16 36.4533 28.1073 36.4533 27.1241 35.5C24.7091 33.1498 22.0296 30.3691 19.6241 28C18.8796 27.2638 18.7087 26.416 19.6241 25.5C20.5396 24.584 21.8796 25.2543 22.6241 26C24.1323 27.5291 24.1534 27.6026 26.6241 30C26.6241 25.4128 26.6298 17.219 26.6241 15Z" fill="white"/>
<path d="M19 40C25.7335 40 32.2758 40 39 40C39 38.4425 38.9535 37.5175 39 36C39 36 39 34 41 34C43 34 43 36 43 36C43.0837 38.0866 43 39.9134 43 42C43 43.198 42.0417 44.0002 41 44.0002C33.4573 44.0102 24.5427 44.0102 17 44.0002C15.9397 44.0002 15 43.1681 15 42C14.9907 39.9534 15 38.0466 15 36C15 36 15 34.0002 17 34C19 33.9998 19 36 19 36C19.0372 37.5375 19 38.3627 19 40Z" fill="white"/>
<path d="M29.005 0C44.9855 0 58.0099 13.0442 58 29.0291C57.9901 45.0043 44.9458 58.0097 28.9454 58C13.0046 57.9806 -0.00991395 44.9267 5.66675e-06 28.9612C0.00992528 13.0151 13.0443 0 29.005 0ZM29.0248 5.37684C16.0202 5.38655 5.4062 15.9752 5.37644 28.9709C5.3566 41.9374 16.0003 52.6037 28.9752 52.6135C41.9897 52.6135 52.6335 41.9665 52.6136 28.9709C52.6037 16.0044 41.96 5.37684 29.0248 5.37684Z" fill="white"/>
</svg>
