<svg width="103" height="62" viewBox="0 0 103 62" fill="none" xmlns="http://www.w3.org/2000/svg">
<path d="M16.6771 30.0742C16.3455 29.4123 16.6627 28.7071 16.6194 28.0164C16.4608 25.829 16.4176 23.6128 16.8069 21.4398C17.3548 18.4609 18.3497 15.6115 19.9357 13.0211C22.3148 9.10684 25.487 5.98404 29.6684 4.08445C33.3163 2.41512 37.1373 1.60924 41.2178 2.18487C45.6299 2.81806 49.523 4.51618 52.8681 7.40873C53.8054 8.21461 54.6561 9.15001 55.4491 10.1142C55.9393 10.7042 56.4728 10.7042 57.0928 10.5315C58.2752 10.2005 59.4142 9.74004 60.6543 9.50978C62.2259 9.22197 63.7831 9.25075 65.2971 9.40905C66.7966 9.55296 68.325 10.0566 69.7236 10.6754C74.6116 12.8053 77.7549 16.5469 79.4707 21.5549C79.6005 21.9147 79.8312 22.26 79.8889 22.6342C80.0186 23.4976 80.6098 23.6128 81.3019 23.6128C82.2391 23.6128 83.1763 23.6416 84.1135 23.5984C87.5164 23.4545 90.5587 24.577 93.2839 26.4478C96.9751 28.9805 99.3397 32.5926 100.392 36.9099C101.69 42.1625 100.926 47.1993 97.9411 51.8043C95.3457 55.8194 91.6978 58.3522 87.0261 59.3307C86.1322 59.5178 85.1805 59.6042 84.2289 59.6042C61.3175 59.561 38.4061 59.5898 15.4948 59.5466C11.5729 59.5322 8.32865 57.906 5.73328 54.8552C4.20489 53.0563 3.09465 51.1424 2.53232 48.883C1.19137 43.4577 2.37371 38.6368 6.19468 34.521C8.17004 32.3912 10.6356 31.1535 13.4329 30.5347C14.4422 30.3189 15.4803 30.2325 16.5041 30.0886" stroke="url(#paint0_linear_21_146)" stroke-width="4" stroke-miterlimit="10" stroke-linecap="round" stroke-linejoin="round"/>
<path d="M40.768 29.972V41.6C40.768 42.56 40.972 43.244 41.38 43.652C41.788 44.036 42.496 44.228 43.504 44.228H45.916V47H42.964C41.14 47 39.772 46.58 38.86 45.74C37.948 44.9 37.492 43.52 37.492 41.6V29.972H34.936V27.272H37.492V22.304H40.768V27.272H45.916V29.972H40.768ZM62.4493 34.076C63.3613 34.22 64.1893 34.592 64.9333 35.192C65.7013 35.792 66.3013 36.536 66.7333 37.424C67.1893 38.312 67.4173 39.26 67.4173 40.268C67.4173 41.54 67.0933 42.692 66.4453 43.724C65.7973 44.732 64.8493 45.536 63.6013 46.136C62.3773 46.712 60.9253 47 59.2453 47H49.8853V21.908H58.8853C60.5893 21.908 62.0413 22.196 63.2413 22.772C64.4413 23.324 65.3413 24.08 65.9413 25.04C66.5413 26 66.8413 27.08 66.8413 28.28C66.8413 29.768 66.4333 31.004 65.6173 31.988C64.8253 32.948 63.7693 33.644 62.4493 34.076ZM53.1613 32.744H58.6693C60.2053 32.744 61.3933 32.384 62.2333 31.664C63.0733 30.944 63.4933 29.948 63.4933 28.676C63.4933 27.404 63.0733 26.408 62.2333 25.688C61.3933 24.968 60.1813 24.608 58.5973 24.608H53.1613V32.744ZM58.9573 44.3C60.5893 44.3 61.8613 43.916 62.7733 43.148C63.6853 42.38 64.1413 41.312 64.1413 39.944C64.1413 38.552 63.6613 37.46 62.7013 36.668C61.7413 35.852 60.4573 35.444 58.8493 35.444H53.1613V44.3H58.9573Z" fill="url(#paint1_linear_21_146)"/>
<defs>
<linearGradient id="paint0_linear_21_146" x1="51.5" y1="2" x2="51.5" y2="59.6042" gradientUnits="userSpaceOnUse">
<stop stop-color="#1762A7"/>
<stop offset="1" stop-color="#BC3A80"/>
</linearGradient>
<linearGradient id="paint1_linear_21_146" x1="67.5" y1="9" x2="67.5" y2="60" gradientUnits="userSpaceOnUse">
<stop stop-color="#1762A7"/>
<stop offset="1" stop-color="#BC3A80"/>
</linearGradient>
</defs>
</svg>
