<svg width="45" height="32" viewBox="0 0 45 32" fill="none" xmlns="http://www.w3.org/2000/svg">
<g clip-path="url(#clip0_20_99)">
<path d="M43.38 3.95005C39.51 5.63005 36.95 8.38005 36.22 12.68C36.61 12.78 36.93 12.85 37.26 12.94C41.05 13.99 43.87 17.13 44.3 21.02C44.95 26.89 41.15 30.88 36.11 31.56C31.18 32.23 26.99 29.38 25.55 24.66C24.3 20.55 24.67 16.48 26.3 12.54C28.87 6.32005 33.45 2.31005 39.91 0.440048C40.38 0.300048 40.84 0.120048 41.31 0.0100482C41.43 -0.0199518 41.68 0.0600482 41.73 0.160048C42.28 1.32005 42.8 2.50005 43.33 3.67005C43.35 3.76005 43.35 3.85005 43.38 3.95005Z" fill="white"/>
<path d="M18.56 3.95998C14.72 5.64998 12.16 8.36998 11.44 12.67C11.84 12.77 12.18 12.85 12.51 12.95C16.32 14.14 18.77 16.68 19.41 20.61C20.33 26.29 17.02 30.57 11.66 31.52C6.89 32.36 2.37 29.88 0.780001 24.75C-0.639999 20.17 -0.0599988 15.68 2 11.4C4.71 5.76998 9.14 2.14998 15.14 0.449977C15.61 0.319977 16.07 0.139977 16.54 0.00997739C16.65 -0.0200226 16.88 0.0499774 16.92 0.139977C17.49 1.36998 18.03 2.60998 18.58 3.84998C18.58 3.85998 18.57 3.87998 18.56 3.95998Z" fill="white"/>
</g>
<defs>
<clipPath id="clip0_20_99">
<rect width="44.36" height="31.69" fill="white"/>
</clipPath>
</defs>
</svg>
