<svg width="45" height="32" viewBox="0 0 45 32" fill="none" xmlns="http://www.w3.org/2000/svg">
<g clip-path="url(#clip0_20_109)">
<path d="M0.979971 27.7399C4.84997 26.0599 7.40997 23.3099 8.13997 19.0099C7.74997 18.9099 7.42997 18.8399 7.09997 18.7499C3.30997 17.6999 0.489973 14.5599 0.0599728 10.6699C-0.590027 4.79989 3.20997 0.809895 8.24997 0.129894C13.18 -0.540104 17.37 2.30989 18.81 7.02989C20.06 11.1399 19.69 15.2099 18.06 19.1499C15.49 25.3699 10.91 29.3799 4.44997 31.2499C3.97997 31.3899 3.51997 31.5699 3.04997 31.6799C2.92997 31.7099 2.67997 31.6299 2.62997 31.5299C2.07997 30.3699 1.55997 29.1899 1.02997 28.0199C1.00997 27.9299 1.00997 27.8399 0.979971 27.7399Z" fill="white"/>
<path d="M25.8 27.73C29.64 26.04 32.2 23.32 32.92 19.02C32.52 18.92 32.18 18.84 31.85 18.74C28.04 17.55 25.59 15.01 24.95 11.08C24.03 5.39996 27.34 1.11996 32.7 0.169964C37.47 -0.670036 41.99 1.80996 43.58 6.93996C45 11.52 44.42 16.01 42.36 20.29C39.65 25.92 35.22 29.54 29.22 31.24C28.75 31.37 28.29 31.55 27.82 31.68C27.71 31.71 27.48 31.64 27.44 31.55C26.87 30.32 26.33 29.08 25.78 27.84C25.78 27.83 25.79 27.81 25.8 27.73Z" fill="white"/>
</g>
<defs>
<clipPath id="clip0_20_109">
<rect width="44.36" height="31.69" fill="white" transform="translate(44.36 31.6899) rotate(180)"/>
</clipPath>
</defs>
</svg>
