<svg width="58" height="58" viewBox="0 0 58 58" fill="none" xmlns="http://www.w3.org/2000/svg">
<path d="M29.005 0C44.9855 0 58.0099 13.0442 58 29.0291C57.9901 45.0043 44.9458 58.0097 28.9454 58C13.0046 57.9806 -0.00991395 44.9267 5.66675e-06 28.9612C0.00992528 13.0151 13.0443 0 29.005 0ZM29.0248 5.37684C16.0202 5.38655 5.4062 15.9752 5.37644 28.9709C5.3566 41.9374 16.0003 52.6037 28.9752 52.6135C41.9897 52.6135 52.6335 41.9665 52.6136 28.9709C52.6037 16.0044 41.96 5.37684 29.0248 5.37684Z" fill="white"/>
<path d="M26.5151 31.4802C26.2572 31.4802 26.0588 31.4802 25.8604 31.4802C22.5374 31.4802 19.2242 31.4802 15.9011 31.4802C14.9092 31.4802 14.0859 31.1308 13.57 30.2377C12.6971 28.7331 13.58 26.8791 15.296 26.5879C15.5639 26.5393 15.8515 26.5393 16.1293 26.5393C19.3532 26.5393 22.587 26.5393 25.8108 26.5393C26.0192 26.5393 26.2374 26.5393 26.5151 26.5393C26.5151 26.3161 26.5151 26.1413 26.5151 25.9666C26.5151 22.6274 26.5151 19.2978 26.5151 15.9586C26.5151 14.8228 26.9615 13.9395 28.013 13.4638C29.4613 12.8038 31.1377 13.7356 31.4154 15.3373C31.4551 15.58 31.465 15.8324 31.465 16.0751C31.465 19.3658 31.465 22.6565 31.465 25.9375C31.465 26.1219 31.465 26.2966 31.465 26.5393C31.7031 26.5393 31.9015 26.5393 32.0999 26.5393C35.4229 26.5393 38.7361 26.5393 42.0592 26.5393C43.19 26.5393 44.0729 26.9859 44.549 28.0439C45.2037 29.4709 44.2812 31.1502 42.7039 31.4317C42.446 31.4802 42.1782 31.4899 41.9203 31.4899C38.6766 31.4899 35.4329 31.4899 32.1892 31.4899C31.9709 31.4899 31.7626 31.4899 31.465 31.4899C31.465 31.6938 31.465 31.8685 31.465 32.0433C31.465 35.3825 31.465 38.712 31.465 42.0513C31.465 43.0608 31.1377 43.9054 30.2251 44.4295C28.7272 45.2935 26.902 44.4587 26.5747 42.7696C26.5251 42.4978 26.5151 42.2163 26.5151 41.9445C26.5151 38.6732 26.5151 35.4019 26.5151 32.1209C26.5151 31.9171 26.5151 31.7423 26.5151 31.4802Z" fill="white"/>
</svg>
